<svg width="16" height="17" viewBox="0 0 16 17" fill="none" xmlns="http://www.w3.org/2000/svg">
<path d="M7.99437 8.9584C8.46712 8.9584 8.93526 8.86528 9.37203 8.68437C9.8088 8.50345 10.2057 8.23828 10.54 7.90398C10.8742 7.56969 11.1394 7.17283 11.3203 6.73606C11.5013 6.29929 11.5944 5.83116 11.5944 5.3584C11.5944 4.88564 11.5013 4.41751 11.3203 3.98074C11.1394 3.54397 10.8742 3.14711 10.54 2.81282C10.2057 2.47852 9.8088 2.21335 9.37203 2.03243C8.93526 1.85152 8.46712 1.7584 7.99437 1.7584C7.03959 1.7584 6.12391 2.13768 5.44878 2.81282C4.77365 3.48795 4.39437 4.40362 4.39437 5.3584C4.39437 6.31318 4.77365 7.22885 5.44878 7.90398C6.12391 8.57911 7.03959 8.9584 7.99437 8.9584ZM7.99997 0.5C9.05373 0.499657 10.0783 0.846087 10.9157 1.48584C11.753 2.12559 12.3565 3.02311 12.6332 4.03991C12.9098 5.05672 12.8442 6.1363 12.4463 7.11209C12.0485 8.08787 11.3407 8.90564 10.432 9.4392C13.3824 10.3272 15.5984 12.8136 15.996 15.9016C16.0336 16.1952 15.8152 16.4616 15.508 16.4976C15.2016 16.5336 14.9216 16.3256 14.884 16.032C14.452 12.68 11.5488 10.156 8.02797 10.156C4.48797 10.156 1.54717 12.6848 1.11597 16.032C1.07837 16.3256 0.798366 16.5336 0.491966 16.4976C0.184766 16.4616 -0.0336335 16.1952 0.00396646 15.9016C0.400766 12.8264 2.62877 10.3432 5.58397 9.4472C4.67252 8.91606 3.96142 8.09944 3.56064 7.12362C3.15985 6.1478 3.09169 5.06712 3.3667 4.04868C3.64171 3.03024 4.24457 2.13075 5.08206 1.4893C5.91956 0.847855 6.94505 0.500167 7.99997 0.5Z" fill="#353535"/>
</svg>
