<svg width="16" height="17" viewBox="0 0 16 17" fill="none" xmlns="http://www.w3.org/2000/svg">
<path d="M1.088 14.2841C1.6896 14.2841 2.1776 14.7801 2.1776 15.3929C2.1776 16.0049 1.6896 16.5017 1.0888 16.5017C0.4872 16.5017 0 16.0057 0 15.3929C0 14.7809 0.488 14.2849 1.088 14.2849V14.2841ZM13.4264 14.2841C14.028 14.2841 14.5144 14.7801 14.5144 15.3929C14.5144 16.0049 14.028 16.5017 13.4264 16.5017C12.8256 16.5017 12.3384 16.0057 12.3384 15.3929C12.3384 14.7809 12.8256 14.2849 13.4264 14.2849V14.2841ZM15.9776 0.8985C16.0189 1.03853 16.0034 1.18917 15.9345 1.31789C15.8657 1.44661 15.749 1.54309 15.6096 1.5865C15.0384 1.7585 14.6672 1.9753 14.4856 2.2129C14.2944 2.4633 14.1896 2.7697 14.1712 3.1177V10.7665C14.1392 11.6577 13.9336 12.3601 13.5328 12.8625C13.116 13.3873 12.476 13.6825 11.5936 13.7681H2.84C2.0584 13.7681 1.4128 13.5641 0.9232 13.1425C0.4336 12.7209 0.1312 12.1105 0.0072 11.3345L0 11.2457V6.4937C0.0368 5.6697 0.2952 4.9897 0.7816 4.4809C1.2768 3.9649 1.968 3.7009 2.84 3.6769H10.4544C10.7552 3.6769 10.9984 3.9249 10.9984 4.2305C10.9997 4.37613 10.9431 4.51631 10.8411 4.62026C10.7391 4.72421 10.6 4.78342 10.4544 4.7849H2.8544C2.2624 4.8009 1.8416 4.9617 1.5608 5.2553C1.2728 5.5561 1.1128 5.9761 1.0888 6.5185V11.1985C1.1768 11.7057 1.3576 12.0633 1.6264 12.2945C1.9024 12.5329 2.3 12.6585 2.84 12.6585L11.54 12.6609C12.1008 12.6049 12.4728 12.4337 12.6872 12.1633C12.9192 11.8721 13.0584 11.3953 13.0824 10.7449V3.0889C13.1128 2.4913 13.2936 1.9665 13.6264 1.5305C13.9696 1.0825 14.5312 0.7545 15.3016 0.5225C15.3706 0.502253 15.4429 0.495895 15.5143 0.503794C15.5858 0.511693 15.6549 0.533692 15.7178 0.568517C15.7807 0.603342 15.836 0.650299 15.8806 0.706668C15.9252 0.763037 15.9582 0.827697 15.9776 0.8969V0.8985ZM10.4544 9.7305C10.7552 9.7305 10.9984 9.9785 10.9984 10.2841C10.9997 10.4297 10.9431 10.5699 10.8411 10.6739C10.7391 10.7778 10.6 10.837 10.4544 10.8385H3.8072C3.66157 10.837 3.52249 10.7778 3.42049 10.6739C3.31849 10.5699 3.26192 10.4297 3.2632 10.2841C3.2632 9.9777 3.5072 9.7297 3.8072 9.7297H10.4544V9.7305ZM10.4544 6.7737C10.7552 6.7737 10.9984 7.0217 10.9984 7.3281C10.9997 7.47373 10.9431 7.61391 10.8411 7.71786C10.7391 7.82181 10.6 7.88102 10.4544 7.8825H3.8072C3.66157 7.88102 3.52249 7.82181 3.42049 7.71786C3.31849 7.61391 3.26192 7.47373 3.2632 7.3281C3.2632 7.0225 3.5072 6.7737 3.8072 6.7737H10.4544Z" fill="#353535"/>
</svg>
