<svg width="16" height="21" viewBox="0 0 16 21" fill="none" xmlns="http://www.w3.org/2000/svg">
<path d="M11.0827 0L16 5.45187V20.0455C16 20.5726 15.5787 21 15.0592 21H0.940912C0.815399 20.9981 0.6915 20.9718 0.576289 20.9228C0.461079 20.8737 0.356814 20.8028 0.26945 20.7141C0.182086 20.6253 0.113335 20.5205 0.0671226 20.4056C0.0209102 20.2907 -0.00185796 20.168 0.000118483 20.0445V0.955548C0.000118483 0.427371 0.421449 0 0.940912 0H11.0816H11.0827ZM10.4598 1.43227H1.41237V19.5688H14.5877V6.65943H11.5702C10.8182 6.68883 10.2368 6.56913 9.82085 6.24571C9.33658 5.86979 9.15952 5.22926 9.18298 4.37557V1.43542H10.464L10.4598 1.43227ZM8.98565 15.273C9.37498 15.273 9.69178 15.5943 9.69178 15.9892C9.69319 16.0818 9.67605 16.1739 9.64132 16.26C9.6066 16.3461 9.55497 16.4247 9.4894 16.4912C9.42383 16.5577 9.34559 16.6108 9.25916 16.6476C9.17272 16.6843 9.07979 16.7039 8.98565 16.7053H3.52969C3.43556 16.7039 3.34262 16.6843 3.25619 16.6476C3.16975 16.6108 3.09151 16.5577 3.02594 16.4912C2.96037 16.4247 2.90875 16.3461 2.87402 16.26C2.8393 16.1739 2.82215 16.0818 2.82356 15.9892C2.82356 15.5943 3.1393 15.273 3.52969 15.273H8.98565ZM12.2443 11.455C12.6336 11.455 12.9504 11.7753 12.9504 12.1712C12.9518 12.2638 12.9347 12.3559 12.9 12.442C12.8652 12.5281 12.8136 12.6067 12.748 12.6732C12.6825 12.7397 12.6042 12.7929 12.5178 12.8296C12.4314 12.8663 12.3384 12.8859 12.2443 12.8873H3.52969C3.43556 12.8859 3.34262 12.8663 3.25619 12.8296C3.16975 12.7929 3.09151 12.7397 3.02594 12.6732C2.96037 12.6067 2.90875 12.5281 2.87402 12.442C2.8393 12.3559 2.82215 12.2638 2.82356 12.1712C2.82356 11.7753 3.1393 11.455 3.52969 11.455H12.2443ZM8.98565 7.63703C9.37498 7.63703 9.69178 7.9573 9.69178 8.35317C9.69435 8.54014 9.62142 8.72047 9.48902 8.85455C9.35662 8.98862 9.17558 9.06549 8.98565 9.06825H3.52969C3.33977 9.06549 3.15872 8.98862 3.02632 8.85455C2.89393 8.72047 2.821 8.54014 2.82356 8.35317C2.82356 7.9573 3.1393 7.63703 3.52969 7.63703H8.98565ZM10.543 1.52258L10.5942 1.58453V4.39447C10.5814 4.85544 10.6443 5.0833 10.6795 5.10851C10.7808 5.18831 11.0614 5.24606 11.5435 5.22821H13.8827L14.2827 5.67343L14.5877 6.0084L10.543 1.52258Z" fill="#353535"/>
</svg>
