<svg width="16" height="19" viewBox="0 0 16 19" fill="none" xmlns="http://www.w3.org/2000/svg">
<path d="M14.2249 0.0444835C15.0815 0.0471702 15.7738 0.822644 15.7717 1.77644L15.7371 17.3222C15.735 18.276 15.0393 19.0471 14.1827 19.0444L3.09617 19.0096C2.23959 19.007 1.54731 18.2315 1.54943 17.2777L1.55212 15.676L0.588913 15.673C0.43313 15.6702 0.284662 15.6005 0.175999 15.4791C0.0673351 15.3577 0.00732583 15.1945 0.00910323 15.0251C0.00989983 14.667 0.271013 14.3781 0.591791 14.3791L1.555 14.3821L1.56011 12.0841L0.596902 12.081C0.440814 12.0783 0.292079 12.0083 0.183367 11.8865C0.0746543 11.7647 0.0148527 11.601 0.0170968 11.4313C0.0178934 11.0732 0.279006 10.7842 0.599784 10.7852L1.563 10.7873L1.56813 8.47786L0.604923 8.47484C0.449141 8.4721 0.300672 8.4024 0.192009 8.28099C0.0833454 8.15958 0.0233361 7.99635 0.0251135 7.82702C0.0259101 7.46887 0.287023 7.17994 0.607801 7.18095L1.57101 7.18302L1.57615 4.87073L0.612946 4.86771C0.457011 4.86496 0.30841 4.79513 0.199722 4.67351C0.0910337 4.5519 0.0311283 4.38842 0.0331388 4.21894C0.0339354 3.86079 0.295048 3.57185 0.615826 3.57286L1.57904 3.57493L1.58401 1.73194C1.58613 0.778144 2.28185 0.00702382 3.13843 0.00971048L14.2249 0.0444835ZM11.3831 1.33137L3.06912 1.3053C3.02813 1.30693 2.98789 1.31765 2.95087 1.33682C2.91385 1.35598 2.88083 1.38317 2.85385 1.41672C2.7922 1.4853 2.75485 1.57536 2.7484 1.67099L2.74415 3.57859L3.48185 3.5809C3.55942 3.5815 3.63611 3.59889 3.70744 3.63207C3.77877 3.66524 3.84331 3.71352 3.89729 3.7741C3.95127 3.83468 3.9936 3.90633 4.02182 3.98488C4.05005 4.06342 4.06359 4.14729 4.06166 4.23157C4.06291 4.40107 4.00228 4.56416 3.89306 4.6851C3.78383 4.80603 3.63492 4.87493 3.47897 4.8767L2.74127 4.87438L2.73613 7.18382L3.49918 7.18622L3.5385 7.19299L3.47383 7.18899C3.56945 7.18919 3.6635 7.21563 3.74724 7.26584L3.7647 7.27635C3.80502 7.30232 3.8415 7.33478 3.87287 7.37264L3.82491 7.32214C3.89266 7.38028 3.94804 7.45367 3.98723 7.53726C4.02643 7.62085 4.04851 7.71267 4.05196 7.8064L4.04601 7.73038C4.0602 7.81743 4.05771 7.90671 4.03869 7.99264C4.01967 8.07857 3.98453 8.1593 3.93547 8.22978C3.88641 8.30025 3.82449 8.35895 3.75359 8.40221C3.68268 8.44546 3.60432 8.47233 3.5234 8.48115L3.49717 8.48296L3.48319 8.48387L2.73325 8.48152L2.72811 10.791L3.46581 10.7933C3.55981 10.7937 3.65225 10.8194 3.73486 10.8682C3.78898 10.8969 3.83174 10.9312 3.86573 10.9741L3.83957 10.9464C3.92475 11.0266 3.98748 11.1311 4.02061 11.2482C4.05373 11.3652 4.05591 11.49 4.0269 11.6082L4.01897 11.6367C3.97749 11.7849 3.88852 11.912 3.76819 11.995L3.75944 11.9997C3.67017 12.0589 3.56749 12.0898 3.46293 12.0891L2.72523 12.0868L2.72012 14.3848L3.48317 14.3872C3.49016 14.3872 3.49715 14.3891 3.50326 14.3911L3.45782 14.3871C3.7786 14.3881 4.03842 14.6787 4.03762 15.0368C4.03716 15.2477 3.94584 15.4355 3.80485 15.5529L3.79347 15.5624C3.77622 15.5763 3.75808 15.589 3.73919 15.6002L3.73219 15.604C3.65857 15.6495 3.57624 15.6759 3.49165 15.6811L3.48029 15.6811L3.46717 15.6829L3.45494 15.6829L2.71724 15.6796L2.71351 17.3554C2.71861 17.4191 2.73946 17.479 2.77604 17.5361L2.81787 17.5914C2.88152 17.6647 2.96009 17.7058 3.05359 17.7156L11.3466 17.7416L11.3831 1.33137ZM14.236 1.33842L12.5421 1.33311L12.5056 17.7433L14.231 17.7488C14.3106 17.749 14.3849 17.7093 14.455 17.626C14.5184 17.5576 14.5597 17.4687 14.5727 17.3727L14.6075 1.74999C14.5999 1.64373 14.5587 1.54358 14.491 1.46652C14.4585 1.42783 14.4191 1.39657 14.3754 1.37458C14.3316 1.35258 14.2842 1.34029 14.236 1.33842Z" fill="#353535"/>
</svg>
