<svg width="16" height="15" viewBox="0 0 16 15" fill="none" xmlns="http://www.w3.org/2000/svg">
<path d="M7.99992 14.1667C11.6819 14.1667 14.6666 11.182 14.6666 7.5C14.6666 3.818 11.6819 0.833328 7.99992 0.833328C4.31792 0.833328 1.33325 3.818 1.33325 7.5C1.33325 11.182 4.31792 14.1667 7.99992 14.1667Z" stroke="#353535" stroke-linecap="round" stroke-linejoin="round"/>
<path d="M8 10.4273V11.8333M10 5.16666C9.54333 4.70999 8.73933 4.39266 8 4.37266L10 5.16666ZM6 9.49999C6.42933 10.0733 7.22867 10.4 8 10.4273L6 9.49999ZM8 4.37266C7.12 4.34866 6.33333 4.74666 6.33333 5.83332C6.33333 7.83332 10 6.83332 10 8.83332C10 9.97399 9.024 10.464 8 10.4273V4.37266ZM8 4.37266V3.16666V4.37266Z" stroke="#353535" stroke-linecap="round" stroke-linejoin="round"/>
</svg>
