<svg width="18" height="19" viewBox="0 0 18 19" fill="none" xmlns="http://www.w3.org/2000/svg">
<path d="M10.7894 11.3319H4.52621C3.57702 11.3319 2.6667 10.9548 1.99551 10.2836C1.32433 9.61244 0.947266 8.70212 0.947266 7.75292C0.947266 6.80373 1.32433 5.89341 1.99551 5.22222C2.6667 4.55104 3.57702 4.17398 4.52621 4.17398H10.7894M10.7894 11.3319V4.17398V11.3319ZM10.7894 11.3319L16.2491 14.4518C16.3306 14.4985 16.4231 14.523 16.5171 14.5227C16.6111 14.5225 16.7034 14.4975 16.7847 14.4504C16.8661 14.4033 16.9336 14.3357 16.9806 14.2543C17.0276 14.1729 17.0524 14.0806 17.0525 13.9866V1.51929C17.0526 1.42521 17.0279 1.33278 16.9809 1.25124C16.934 1.16971 16.8665 1.10194 16.7851 1.05473C16.7037 1.00752 16.6114 0.982522 16.5173 0.982241C16.4232 0.981961 16.3307 1.00641 16.2491 1.05313L10.7894 4.17398V11.3319Z" stroke="#353535"/>
<path d="M5.20442 16.0739L4.5271 11.3318H8.10605L8.71178 15.5728C8.77312 16.0355 8.64938 16.5038 8.36745 16.8757C8.08551 17.2477 7.66817 17.4934 7.20611 17.5594C6.74405 17.6254 6.2746 17.5064 5.89979 17.2283C5.52498 16.9501 5.27509 16.5353 5.20442 16.0739V16.0739Z" stroke="#353535"/>
</svg>
