<svg width="16" height="17" viewBox="0 0 16 17" fill="none" xmlns="http://www.w3.org/2000/svg">
<path d="M1.08809 8.096V13.8216H3.51209L3.63449 13.836C5.88489 14.3608 7.37609 14.7392 8.11929 14.9736C9.10649 15.2848 9.47449 15.3608 10.1441 15.4056C10.6449 15.44 11.2137 15.2472 11.4729 14.9832C11.6161 14.8376 11.7233 14.5384 11.7657 14.0744C11.7745 13.9771 11.8093 13.884 11.8664 13.8047C11.9235 13.7255 12.0009 13.6631 12.0905 13.624C12.2897 13.5376 12.4553 13.3968 12.5937 13.192C12.7217 13.0048 12.8049 12.656 12.8201 12.1512C12.8228 12.0584 12.8491 11.9678 12.8965 11.888C12.944 11.8082 13.011 11.7419 13.0913 11.6952C13.5569 11.4256 13.7873 11.1216 13.8353 10.7648C13.8881 10.3704 13.7601 9.9264 13.4249 9.4208C13.3462 9.30222 13.317 9.15765 13.3432 9.01781C13.3695 8.87797 13.4493 8.75391 13.5657 8.672C13.8865 8.4464 14.0625 8.1328 14.1065 7.688C14.1769 6.9792 13.7249 6.4552 12.7017 6.3504C11.7904 6.26027 10.8703 6.33699 9.98649 6.5768C9.88624 6.603 9.78058 6.60002 9.68196 6.56821C9.58335 6.53641 9.49586 6.4771 9.42981 6.39726C9.36375 6.31742 9.32187 6.22038 9.3091 6.11755C9.29632 6.01471 9.31318 5.91037 9.35769 5.8168C9.75769 4.9704 9.98009 4.272 10.0321 3.7312C10.1001 3.0136 9.93449 2.4936 9.54729 2.0648C9.25369 1.74 8.78409 1.5544 8.60809 1.5928C8.37609 1.6424 8.22489 1.7768 8.02809 2.2472C7.91209 2.5256 7.85609 2.7624 7.76009 3.3152C7.66809 3.84 7.61769 4.0768 7.51289 4.3872C7.19689 5.328 6.42169 6.3032 5.38089 6.976C4.65145 7.44697 3.86089 7.81574 3.03129 8.072C2.97946 8.08798 2.92552 8.09607 2.87129 8.096H1.08809ZM1.05449 14.912C0.79609 14.9192 0.56409 14.8616 0.36969 14.7256C0.12169 14.552 0.00488971 14.2784 0.00248971 13.9632L0.00488971 8.1048C-0.0223103 7.7928 0.0696897 7.5064 0.28729 7.2936C0.49129 7.0936 0.75769 6.9992 1.03929 7.0056H2.78729C3.49438 6.7803 4.1685 6.46233 4.79209 6.06C5.63049 5.5176 6.24809 4.74 6.48409 4.0392C6.56489 3.7976 6.60809 3.5976 6.68969 3.1272C6.80009 2.496 6.86889 2.2024 7.02729 1.8248C7.35529 1.0392 7.78569 0.655199 8.37929 0.526399C8.96329 0.399999 9.81369 0.736799 10.3513 1.332C10.9473 1.9912 11.2105 2.816 11.1129 3.8352C11.0713 4.2736 10.9497 4.764 10.7497 5.3104C11.4327 5.21086 12.1254 5.19581 12.8121 5.2656C14.4177 5.4296 15.3193 6.4752 15.1881 7.7968C15.1305 8.3664 14.9241 8.8504 14.5729 9.2304C14.8681 9.7992 14.9857 10.3616 14.9121 10.9104C14.8273 11.5424 14.4753 12.0688 13.8897 12.4776C13.8441 13.032 13.7169 13.4744 13.4913 13.8056C13.3135 14.0732 13.0816 14.3005 12.8105 14.4728C12.7241 15.02 12.5425 15.448 12.2457 15.7488C11.7537 16.2496 10.8745 16.548 10.0713 16.4936C9.30889 16.4424 8.85769 16.3496 7.79369 16.0136C7.09209 15.792 5.63929 15.424 3.44969 14.912H1.05369H1.05449ZM2.41529 7.8472C2.41508 7.77563 2.42899 7.70471 2.45624 7.63853C2.48348 7.57234 2.52352 7.51218 2.57406 7.4615C2.62459 7.41081 2.68463 7.3706 2.75074 7.34316C2.81685 7.31572 2.88772 7.3016 2.95929 7.3016C3.03073 7.30181 3.10143 7.31609 3.16735 7.34362C3.23327 7.37115 3.29312 7.4114 3.34349 7.46206C3.39385 7.51273 3.43375 7.57282 3.46089 7.6389C3.48804 7.70498 3.5019 7.77576 3.50169 7.8472V13.9896C3.50179 14.061 3.48783 14.1318 3.46059 14.1978C3.43335 14.2639 3.39336 14.3239 3.34292 14.3745C3.29248 14.4251 3.23257 14.4653 3.16661 14.4927C3.10065 14.5201 3.02993 14.5343 2.95849 14.5344C2.88705 14.5343 2.81633 14.5201 2.75037 14.4927C2.68441 14.4653 2.6245 14.4251 2.57406 14.3745C2.52362 14.3239 2.48363 14.2639 2.45639 14.1978C2.42915 14.1318 2.41518 14.061 2.41529 13.9896V7.8472Z" fill="#353535"/>
</svg>
