<svg width="41" height="40" viewBox="0 0 41 40" fill="none" xmlns="http://www.w3.org/2000/svg">
<path fill-rule="evenodd" clip-rule="evenodd" d="M0.0495605 20C0.0495605 8.9543 9.00387 0 20.0496 0C31.0953 0 40.0496 8.9543 40.0496 20C40.0496 31.0457 31.0953 40 20.0496 40C9.00387 40 0.0495605 31.0457 0.0495605 20ZM20.0506 9.33333C17.1536 9.33333 16.7901 9.346 15.6523 9.39778C14.5167 9.44978 13.7416 9.62956 13.0634 9.89334C12.3618 10.1658 11.7667 10.5302 11.1738 11.1234C10.5805 11.7162 10.216 12.3114 9.94268 13.0127C9.67823 13.6912 9.49823 14.4665 9.44712 15.6016C9.39623 16.7394 9.38289 17.1032 9.38289 20.0001C9.38289 22.897 9.39578 23.2595 9.44734 24.3973C9.49956 25.5328 9.67934 26.308 9.9429 26.9862C10.2156 27.6877 10.58 28.2829 11.1731 28.8758C11.7658 29.4691 12.3609 29.8344 13.062 30.1069C13.7407 30.3707 14.5161 30.5504 15.6514 30.6024C16.7892 30.6542 17.1525 30.6669 20.0492 30.6669C22.9464 30.6669 23.3088 30.6542 24.4466 30.6024C25.5822 30.5504 26.3582 30.3707 27.0369 30.1069C27.7382 29.8344 28.3324 29.4691 28.9251 28.8758C29.5184 28.2829 29.8829 27.6877 30.1562 26.9864C30.4184 26.308 30.5984 25.5326 30.6518 24.3975C30.7029 23.2597 30.7162 22.897 30.7162 20.0001C30.7162 17.1032 30.7029 16.7396 30.6518 15.6018C30.5984 14.4663 30.4184 13.6912 30.1562 13.0129C29.8829 12.3114 29.5184 11.7162 28.9251 11.1234C28.3318 10.53 27.7384 10.1656 27.0362 9.89334C26.3562 9.62956 25.5806 9.44978 24.4451 9.39778C23.3073 9.346 22.945 9.33333 20.0472 9.33333H20.0506Z" fill="#353535"/>
<path fill-rule="evenodd" clip-rule="evenodd" d="M19.0937 11.2556C19.3777 11.2551 19.6946 11.2556 20.0506 11.2556C22.8986 11.2556 23.2361 11.2658 24.3608 11.3169C25.4008 11.3645 25.9653 11.5382 26.3413 11.6842C26.8391 11.8776 27.194 12.1087 27.5671 12.482C27.9404 12.8554 28.1715 13.2109 28.3653 13.7087C28.5113 14.0843 28.6853 14.6487 28.7327 15.6887C28.7838 16.8132 28.7949 17.151 28.7949 19.9977C28.7949 22.8444 28.7838 23.1821 28.7327 24.3066C28.6851 25.3466 28.5113 25.9111 28.3653 26.2866C28.172 26.7844 27.9404 27.1388 27.5671 27.512C27.1937 27.8853 26.8393 28.1164 26.3413 28.3098C25.9657 28.4564 25.4008 28.6298 24.3608 28.6773C23.2364 28.7284 22.8986 28.7395 20.0506 28.7395C17.2023 28.7395 16.8647 28.7284 15.7403 28.6773C14.7003 28.6293 14.1358 28.4555 13.7596 28.3095C13.2618 28.1162 12.9063 27.8851 12.5329 27.5117C12.1596 27.1384 11.9285 26.7837 11.7347 26.2857C11.5887 25.9102 11.4147 25.3457 11.3674 24.3057C11.3162 23.1813 11.306 22.8435 11.306 19.995C11.306 17.1465 11.3162 16.8105 11.3674 15.6861C11.4149 14.6461 11.5887 14.0816 11.7347 13.7056C11.928 13.2078 12.1596 12.8523 12.5329 12.4789C12.9063 12.1056 13.2618 11.8745 13.7596 11.6807C14.1356 11.534 14.7003 11.3607 15.7403 11.3129C16.7243 11.2685 17.1056 11.2551 19.0937 11.2529V11.2556ZM25.7444 13.0267C25.0377 13.0267 24.4644 13.5994 24.4644 14.3063C24.4644 15.0129 25.0377 15.5863 25.7444 15.5863C26.4511 15.5863 27.0244 15.0129 27.0244 14.3063C27.0244 13.5996 26.4511 13.0267 25.7444 13.0267ZM20.0506 14.5223C17.0254 14.5223 14.5727 16.975 14.5727 20.0001C14.5727 23.0253 17.0254 25.4768 20.0506 25.4768C23.0757 25.4768 25.5275 23.0253 25.5275 20.0001C25.5275 16.975 23.0757 14.5223 20.0506 14.5223Z" fill="#353535"/>
<path fill-rule="evenodd" clip-rule="evenodd" d="M20.0506 16.4445C22.0141 16.4445 23.6062 18.0363 23.6062 20.0001C23.6062 21.9637 22.0141 23.5557 20.0506 23.5557C18.0868 23.5557 16.495 21.9637 16.495 20.0001C16.495 18.0363 18.0868 16.4445 20.0506 16.4445Z" fill="#353535"/>
</svg>
