<svg width="34" height="30" viewBox="0 0 34 30" fill="none" xmlns="http://www.w3.org/2000/svg">
<mask id="path-1-outside-1" maskUnits="userSpaceOnUse" x="0" y="0.352245" width="34" height="29" fill="black">
<rect fill="white" y="0.352245" width="34" height="29"/>
<path fill-rule="evenodd" clip-rule="evenodd" d="M16.1545 16.8077C16.19 16.8082 16.2255 16.8085 16.2611 16.8085C18.3253 16.8085 20.2661 16.0046 21.7257 14.545C23.1854 13.0853 23.9893 11.1446 23.9893 9.08039C23.9893 7.01614 23.1854 5.0754 21.7257 3.61576C20.2661 2.15612 18.3253 1.35225 16.2611 1.35225C14.1968 1.35225 12.2561 2.15612 10.7965 3.61576C9.33679 5.0754 8.53292 7.0161 8.53292 9.08039C8.53292 11.1446 9.33683 13.0853 10.7965 14.545C11.3349 15.0834 11.9389 15.5326 12.5903 15.8852C11.9809 16.0265 11.3801 16.2053 10.7899 16.4213C9.15633 17.0193 7.64477 17.8862 6.29705 18.998C3.5907 21.2306 1.71436 24.3422 1.01361 27.7598C0.94021 28.1178 1.17098 28.4677 1.52906 28.5411C1.57303 28.5502 1.61781 28.5547 1.6627 28.5547C1.97045 28.5547 2.24619 28.3389 2.31046 28.0256C3.64269 21.5283 9.43145 16.8125 16.0748 16.8125C16.1018 16.8125 16.1284 16.8109 16.1545 16.8077ZM9.85671 9.08039C9.85671 5.54902 12.7297 2.67603 16.2611 2.67603C19.7925 2.67603 22.6655 5.54902 22.6655 9.08039C22.6655 12.6117 19.7925 15.4847 16.2611 15.4847C12.7297 15.4847 9.85671 12.6117 9.85671 9.08039ZM30.0254 28.1187C30.0896 28.4319 30.3653 28.6478 30.6731 28.6478C30.718 28.6477 30.7628 28.6432 30.8068 28.6342C31.1648 28.5607 31.3956 28.2109 31.3222 27.8528C30.9266 25.9236 30.0219 23.9428 28.7058 22.1248C27.4674 20.4139 25.9258 18.9189 24.2479 17.8015C23.9437 17.5989 23.5327 17.6813 23.3301 17.9855C23.1275 18.2897 23.2099 18.7006 23.5141 18.9033C26.7657 21.0687 29.3215 24.686 30.0254 28.1187ZM25.3119 10.1777H32.46C32.8255 10.1777 33.1219 9.88137 33.1219 9.5158C33.1219 9.15024 32.8255 8.85391 32.46 8.85391H25.3119C24.9463 8.85391 24.65 9.15024 24.65 9.5158C24.65 9.88137 24.9463 10.1777 25.3119 10.1777ZM24.5828 13.4872H32.46C32.8255 13.4872 33.1219 13.1908 33.1219 12.8253C33.1219 12.4597 32.8256 12.1634 32.46 12.1634H24.5828C24.2172 12.1634 23.9209 12.4597 23.9209 12.8253C23.9209 13.1908 24.2172 13.4872 24.5828 13.4872ZM22.8882 16.7966H32.46C32.8255 16.7966 33.1219 16.5003 33.1219 16.1347C33.1219 15.7692 32.8256 15.4729 32.46 15.4729H22.8882C22.5226 15.4729 22.2263 15.7692 22.2263 16.1347C22.2263 16.5003 22.5226 16.7966 22.8882 16.7966Z"/>
</mask>
<path fill-rule="evenodd" clip-rule="evenodd" d="M16.1545 16.8077C16.19 16.8082 16.2255 16.8085 16.2611 16.8085C18.3253 16.8085 20.2661 16.0046 21.7257 14.545C23.1854 13.0853 23.9893 11.1446 23.9893 9.08039C23.9893 7.01614 23.1854 5.0754 21.7257 3.61576C20.2661 2.15612 18.3253 1.35225 16.2611 1.35225C14.1968 1.35225 12.2561 2.15612 10.7965 3.61576C9.33679 5.0754 8.53292 7.0161 8.53292 9.08039C8.53292 11.1446 9.33683 13.0853 10.7965 14.545C11.3349 15.0834 11.9389 15.5326 12.5903 15.8852C11.9809 16.0265 11.3801 16.2053 10.7899 16.4213C9.15633 17.0193 7.64477 17.8862 6.29705 18.998C3.5907 21.2306 1.71436 24.3422 1.01361 27.7598C0.94021 28.1178 1.17098 28.4677 1.52906 28.5411C1.57303 28.5502 1.61781 28.5547 1.6627 28.5547C1.97045 28.5547 2.24619 28.3389 2.31046 28.0256C3.64269 21.5283 9.43145 16.8125 16.0748 16.8125C16.1018 16.8125 16.1284 16.8109 16.1545 16.8077ZM9.85671 9.08039C9.85671 5.54902 12.7297 2.67603 16.2611 2.67603C19.7925 2.67603 22.6655 5.54902 22.6655 9.08039C22.6655 12.6117 19.7925 15.4847 16.2611 15.4847C12.7297 15.4847 9.85671 12.6117 9.85671 9.08039ZM30.0254 28.1187C30.0896 28.4319 30.3653 28.6478 30.6731 28.6478C30.718 28.6477 30.7628 28.6432 30.8068 28.6342C31.1648 28.5607 31.3956 28.2109 31.3222 27.8528C30.9266 25.9236 30.0219 23.9428 28.7058 22.1248C27.4674 20.4139 25.9258 18.9189 24.2479 17.8015C23.9437 17.5989 23.5327 17.6813 23.3301 17.9855C23.1275 18.2897 23.2099 18.7006 23.5141 18.9033C26.7657 21.0687 29.3215 24.686 30.0254 28.1187ZM25.3119 10.1777H32.46C32.8255 10.1777 33.1219 9.88137 33.1219 9.5158C33.1219 9.15024 32.8255 8.85391 32.46 8.85391H25.3119C24.9463 8.85391 24.65 9.15024 24.65 9.5158C24.65 9.88137 24.9463 10.1777 25.3119 10.1777ZM24.5828 13.4872H32.46C32.8255 13.4872 33.1219 13.1908 33.1219 12.8253C33.1219 12.4597 32.8256 12.1634 32.46 12.1634H24.5828C24.2172 12.1634 23.9209 12.4597 23.9209 12.8253C23.9209 13.1908 24.2172 13.4872 24.5828 13.4872ZM22.8882 16.7966H32.46C32.8255 16.7966 33.1219 16.5003 33.1219 16.1347C33.1219 15.7692 32.8256 15.4729 32.46 15.4729H22.8882C22.5226 15.4729 22.2263 15.7692 22.2263 16.1347C22.2263 16.5003 22.5226 16.7966 22.8882 16.7966Z" fill="#33635F"/>
<path d="M16.1545 16.8077L16.1599 16.4078L16.1333 16.4074L16.1069 16.4106L16.1545 16.8077ZM21.7257 3.61576L22.0086 3.33291V3.33291L21.7257 3.61576ZM10.7965 3.61576L11.0793 3.8986L11.0793 3.8986L10.7965 3.61576ZM10.7965 14.545L10.5136 14.8278L10.5136 14.8278L10.7965 14.545ZM12.5903 15.8852L12.6807 16.2748L13.7098 16.0362L12.7807 15.5334L12.5903 15.8852ZM10.7899 16.4213L10.9274 16.797L10.9274 16.797L10.7899 16.4213ZM6.29705 18.998L6.04251 18.6894L6.04251 18.6894L6.29705 18.998ZM1.01361 27.7598L0.621766 27.6794L0.621762 27.6794L1.01361 27.7598ZM1.52906 28.5411L1.60982 28.1493L1.60942 28.1492L1.52906 28.5411ZM1.6627 28.5547L1.66267 28.9547H1.6627V28.5547ZM2.31046 28.0256L2.7023 28.106L2.70231 28.106L2.31046 28.0256ZM30.6731 28.6478V29.0478H30.6733L30.6731 28.6478ZM30.0254 28.1187L29.6335 28.1991L29.6335 28.1991L30.0254 28.1187ZM30.8068 28.6342L30.7264 28.2423L30.7264 28.2423L30.8068 28.6342ZM31.3222 27.8528L31.714 27.7724L31.3222 27.8528ZM28.7058 22.1248L28.3818 22.3593L28.3818 22.3593L28.7058 22.1248ZM24.2479 17.8015L24.4696 17.4685L24.4696 17.4685L24.2479 17.8015ZM23.3301 17.9855L23.663 18.2072V18.2072L23.3301 17.9855ZM23.5141 18.9033L23.2924 19.2362L23.2924 19.2362L23.5141 18.9033ZM16.2611 16.4085C16.2273 16.4085 16.1936 16.4082 16.1599 16.4078L16.1491 17.2077C16.1864 17.2082 16.2237 17.2085 16.2611 17.2085V16.4085ZM21.4429 14.2621C20.0582 15.6467 18.2193 16.4085 16.2611 16.4085V17.2085C18.4314 17.2085 20.4739 16.3624 22.0086 14.8278L21.4429 14.2621ZM23.5893 9.08039C23.5893 11.0385 22.8275 12.8775 21.4429 14.2621L22.0086 14.8278C23.5433 13.2931 24.3893 11.2507 24.3893 9.08039H23.5893ZM21.4429 3.8986C22.8275 5.28323 23.5893 7.12223 23.5893 9.08039H24.3893C24.3893 6.91005 23.5432 4.86757 22.0086 3.33291L21.4429 3.8986ZM16.2611 1.75225C18.2193 1.75225 20.0583 2.51397 21.4429 3.8986L22.0086 3.33291C20.4739 1.79826 18.4314 0.952245 16.2611 0.952245V1.75225ZM11.0793 3.8986C12.4639 2.51397 14.3029 1.75225 16.2611 1.75225V0.952245C14.0908 0.952245 12.0483 1.79826 10.5136 3.33291L11.0793 3.8986ZM8.93292 9.08039C8.93292 7.12219 9.69465 5.28323 11.0793 3.8986L10.5136 3.33291C8.97894 4.86757 8.13292 6.91002 8.13292 9.08039H8.93292ZM11.0793 14.2621C9.69468 12.8775 8.93292 11.0385 8.93292 9.08039H8.13292C8.13292 11.2507 8.97897 13.2931 10.5136 14.8278L11.0793 14.2621ZM12.7807 15.5334C12.1634 15.1993 11.5906 14.7734 11.0793 14.2621L10.5136 14.8278C11.0793 15.3934 11.7143 15.8659 12.3999 16.2369L12.7807 15.5334ZM10.9274 16.797C11.5022 16.5866 12.0873 16.4124 12.6807 16.2748L12.4999 15.4955C11.8745 15.6405 11.258 15.8241 10.6524 16.0457L10.9274 16.797ZM6.55159 19.3065C7.86453 18.2234 9.33655 17.3793 10.9274 16.797L10.6524 16.0457C8.97612 16.6593 7.425 17.5489 6.04251 18.6894L6.55159 19.3065ZM1.40546 27.8401C2.08774 24.5126 3.9153 21.4813 6.55159 19.3065L6.04251 18.6894C3.2661 20.9798 1.34098 24.1718 0.621766 27.6794L1.40546 27.8401ZM1.60942 28.1492C1.46773 28.1202 1.37642 27.9818 1.40547 27.8401L0.621762 27.6794C0.503997 28.2539 0.874225 28.8151 1.4487 28.9329L1.60942 28.1492ZM1.66273 28.1547C1.64495 28.1547 1.62723 28.1529 1.60982 28.1493L1.4483 28.9328C1.51884 28.9474 1.59066 28.9547 1.66267 28.9547L1.66273 28.1547ZM1.91863 27.9452C1.89328 28.0688 1.78428 28.1547 1.6627 28.1547V28.9547C2.15661 28.9547 2.59911 28.609 2.7023 28.106L1.91863 27.9452ZM16.0748 16.4125C9.24197 16.4125 3.28909 21.2615 1.91862 27.9453L2.70231 28.106C3.99629 21.7952 9.62093 17.2125 16.0748 17.2125V16.4125ZM16.1069 16.4106C16.0965 16.4118 16.0859 16.4125 16.0748 16.4125V17.2125C16.1178 17.2125 16.1602 17.2099 16.2021 17.2049L16.1069 16.4106ZM16.2611 2.27603C12.5088 2.27603 9.45671 5.3281 9.45671 9.08039H10.2567C10.2567 5.76993 12.9506 3.07603 16.2611 3.07603V2.27603ZM23.0655 9.08039C23.0655 5.3281 20.0134 2.27603 16.2611 2.27603V3.07603C19.5716 3.07603 22.2655 5.76993 22.2655 9.08039H23.0655ZM16.2611 15.8847C20.0134 15.8847 23.0655 12.8326 23.0655 9.08039H22.2655C22.2655 12.3908 19.5716 15.0847 16.2611 15.0847V15.8847ZM9.45671 9.08039C9.45671 12.8326 12.5088 15.8847 16.2611 15.8847V15.0847C12.9506 15.0847 10.2567 12.3908 10.2567 9.08039H9.45671ZM30.6731 28.2478C30.5515 28.2478 30.4426 28.1618 30.4172 28.0383L29.6335 28.1991C29.7367 28.7021 30.1792 29.0478 30.6731 29.0478V28.2478ZM30.7264 28.2423C30.7088 28.2459 30.6909 28.2477 30.6729 28.2478L30.6733 29.0478C30.7451 29.0477 30.8168 29.0404 30.8871 29.026L30.7264 28.2423ZM30.9304 27.9331C30.9594 28.0748 30.8681 28.2132 30.7264 28.2423L30.8871 29.026C31.4616 28.9082 31.8319 28.347 31.714 27.7724L30.9304 27.9331ZM28.3818 22.3593C29.6692 24.1378 30.5476 26.0668 30.9304 27.9331L31.714 27.7724C31.3055 25.7803 30.3746 23.7479 29.0298 21.8902L28.3818 22.3593ZM24.0262 18.1344C25.6626 19.2242 27.17 20.6852 28.3818 22.3593L29.0298 21.8902C27.7648 20.1426 26.1891 18.6137 24.4696 17.4685L24.0262 18.1344ZM23.663 18.2072C23.7432 18.0869 23.9058 18.0543 24.0262 18.1344L24.4696 17.4685C23.9815 17.1436 23.3223 17.2756 22.9972 17.7638L23.663 18.2072ZM23.7359 18.5704C23.6155 18.4902 23.5829 18.3276 23.663 18.2072L22.9972 17.7638C22.6721 18.2519 22.8043 18.9111 23.2924 19.2362L23.7359 18.5704ZM30.4172 28.0384C29.6896 24.49 27.0642 20.7869 23.7359 18.5704L23.2924 19.2362C26.4672 21.3505 28.9534 24.8819 29.6335 28.1991L30.4172 28.0384ZM32.46 9.7777H25.3119V10.5777H32.46V9.7777ZM32.7219 9.5158C32.7219 9.66047 32.6046 9.7777 32.46 9.7777V10.5777C33.0465 10.5777 33.5219 10.1023 33.5219 9.5158H32.7219ZM32.46 9.25391C32.6046 9.25391 32.7219 9.37115 32.7219 9.5158H33.5219C33.5219 8.92933 33.0464 8.45391 32.46 8.45391V9.25391ZM25.3119 9.25391H32.46V8.45391H25.3119V9.25391ZM25.05 9.5158C25.05 9.37115 25.1672 9.25391 25.3119 9.25391V8.45391C24.7254 8.45391 24.25 8.92933 24.25 9.5158H25.05ZM25.3119 9.7777C25.1672 9.7777 25.05 9.66045 25.05 9.5158H24.25C24.25 10.1023 24.7254 10.5777 25.3119 10.5777V9.7777ZM32.46 13.0872H24.5828V13.8872H32.46V13.0872ZM32.7219 12.8253C32.7219 12.9699 32.6046 13.0872 32.46 13.0872V13.8872C33.0464 13.8872 33.5219 13.4118 33.5219 12.8253H32.7219ZM32.46 12.5634C32.6046 12.5634 32.7219 12.6806 32.7219 12.8253H33.5219C33.5219 12.2388 33.0465 11.7634 32.46 11.7634V12.5634ZM24.5828 12.5634H32.46V11.7634H24.5828V12.5634ZM24.3209 12.8253C24.3209 12.6806 24.4381 12.5634 24.5828 12.5634V11.7634C23.9963 11.7634 23.5209 12.2388 23.5209 12.8253H24.3209ZM24.5828 13.0872C24.4381 13.0872 24.3209 12.9699 24.3209 12.8253H23.5209C23.5209 13.4118 23.9963 13.8872 24.5828 13.8872V13.0872ZM32.46 16.3966H22.8882V17.1966H32.46V16.3966ZM32.7219 16.1347C32.7219 16.2794 32.6046 16.3966 32.46 16.3966V17.1966C33.0464 17.1966 33.5219 16.7212 33.5219 16.1347H32.7219ZM32.46 15.8729C32.6046 15.8729 32.7219 15.9901 32.7219 16.1347H33.5219C33.5219 15.5483 33.0465 15.0729 32.46 15.0729V15.8729ZM22.8882 15.8729H32.46V15.0729H22.8882V15.8729ZM22.6263 16.1347C22.6263 15.9901 22.7435 15.8729 22.8882 15.8729V15.0729C22.3017 15.0729 21.8263 15.5483 21.8263 16.1347H22.6263ZM22.8882 16.3966C22.7435 16.3966 22.6263 16.2794 22.6263 16.1347H21.8263C21.8263 16.7212 22.3017 17.1966 22.8882 17.1966V16.3966Z" fill="#33635F" mask="url(#path-1-outside-1)"/>
</svg>
