<svg width="20" height="20" viewBox="0 0 20 20" fill="none" xmlns="http://www.w3.org/2000/svg">
<path fill-rule="evenodd" clip-rule="evenodd" d="M5.67499 12.899L0.294989 18.279C0.105888 18.4682 -0.000291824 18.7248 -0.000198364 18.9923C-0.000104904 19.2599 0.106256 19.5164 0.295488 19.7055C0.48472 19.8946 0.741322 20.0008 1.00884 20.0007C1.27636 20.0006 1.53289 19.8942 1.72199 19.705L7.10199 14.325C8.71028 15.5707 10.7327 16.1569 12.7579 15.9643C14.783 15.7718 16.6588 14.815 18.0035 13.2886C19.3483 11.7622 20.061 9.78081 19.9967 7.74754C19.9325 5.71428 19.096 3.78186 17.6576 2.3434C16.2191 0.904947 14.2867 0.0685095 12.2534 0.0042481C10.2202 -0.0600133 8.2388 0.652728 6.71238 1.99748C5.18596 3.34223 4.22917 5.21797 4.03664 7.24312C3.84411 9.26827 4.43031 11.2907 5.67599 12.899H5.67499ZM12 14C10.4087 14 8.88257 13.3679 7.75735 12.2426C6.63213 11.1174 5.99999 9.5913 5.99999 8C5.99999 6.4087 6.63213 4.88257 7.75735 3.75736C8.88257 2.63214 10.4087 2 12 2C13.5913 2 15.1174 2.63214 16.2426 3.75736C17.3678 4.88257 18 6.4087 18 8C18 9.5913 17.3678 11.1174 16.2426 12.2426C15.1174 13.3679 13.5913 14 12 14Z" fill="#33635F"/>
</svg>
