<svg width="41" height="40" viewBox="0 0 41 40" fill="none" xmlns="http://www.w3.org/2000/svg">
<path fill-rule="evenodd" clip-rule="evenodd" d="M0.0495605 20C0.0495605 8.9543 9.00387 0 20.0496 0C31.0953 0 40.0496 8.9543 40.0496 20C40.0496 31.0457 31.0953 40 20.0496 40C9.00387 40 0.0495605 31.0457 0.0495605 20ZM21.0958 26.5634C21.0958 26.5634 21.4808 26.5214 21.678 26.3135C21.8585 26.123 21.8523 25.7635 21.8523 25.7635C21.8523 25.7635 21.8283 24.0848 22.6223 23.8369C23.4049 23.5932 24.4097 25.4603 25.476 26.1783C26.2815 26.7211 26.893 26.6023 26.893 26.6023L29.7426 26.5634C29.7426 26.5634 31.2325 26.4733 30.5262 25.3231C30.4677 25.2289 30.114 24.472 28.408 22.9172C26.6207 21.2897 26.8606 21.553 29.0122 18.7374C30.3227 17.0229 30.8465 15.9761 30.6827 15.5285C30.5272 15.1004 29.5631 15.2141 29.5631 15.2141L26.3556 15.2336C26.3556 15.2336 26.1177 15.2018 25.9414 15.3053C25.7692 15.4067 25.6576 15.6433 25.6576 15.6433C25.6576 15.6433 25.1505 16.9696 24.4733 18.0983C23.0449 20.4786 22.4741 20.6045 22.2404 20.4571C21.6968 20.1119 21.8324 19.0723 21.8324 18.3339C21.8324 16.0263 22.1893 15.0646 21.1386 14.8157C20.7901 14.7327 20.5334 14.6784 19.6413 14.6692C18.4966 14.658 17.5283 14.6733 16.9795 14.9365C16.6143 15.1117 16.3326 15.5029 16.5048 15.5255C16.7166 15.5531 17.1965 15.6525 17.4511 15.9925C17.7798 16.4319 17.7683 17.4172 17.7683 17.4172C17.7683 17.4172 17.9572 20.1334 17.327 20.4704C16.895 20.7018 16.3023 20.2297 15.0283 18.0696C14.3762 16.9635 13.8837 15.7406 13.8837 15.7406C13.8837 15.7406 13.7888 15.5122 13.6187 15.3893C13.4131 15.2407 13.1262 15.1946 13.1262 15.1946L10.0784 15.2141C10.0784 15.2141 9.62031 15.2264 9.45232 15.422C9.30311 15.5951 9.44084 15.9546 9.44084 15.9546C9.44084 15.9546 11.8271 21.4352 14.5296 24.1975C17.0077 26.7293 19.8207 26.5634 19.8207 26.5634H21.0958Z" fill="#353535"/>
</svg>
